<svg xmlns="http://www.w3.org/2000/svg" xmlns:xlink="http://www.w3.org/1999/xlink" xmlns:lucid="lucid" width="1065.64" height="538.5"><g transform="translate(1691 -52.50000000000003)" lucid:page-tab-id="0_0"><path d="M-1618.5 156c0-3.3 2.7-6 6-6h148c3.3 0 6 2.7 6 6v108c0 3.3-2.7 6-6 6h-148c-3.3 0-6-2.7-6-6z" stroke="#5e5e5e" stroke-width="3" fill="#fff"/><use xlink:href="#a" transform="matrix(1,0,0,1,-1613.5,155) translate(50.370370370370374 45.27777777777778)"/><use xlink:href="#b" transform="matrix(1,0,0,1,-1613.5,155) translate(41.69753086419753 71.94444444444446)"/><path d="M-1618.5 422.4c0-3.3 1.9-7.9 4.24-10.24l37.92-37.92c2.34-2.34 6.93-4.24 10.24-4.24h55.2c3.3 0 7.9 1.9 10.24 4.24l37.92 37.92c2.34 2.34 4.24 6.93 4.24 10.24v55.2c0 3.3-1.9 7.9-4.24 10.24l-37.92 37.92c-2.34 2.34-6.93 4.24-10.24 4.24h-55.2c-3.3 0-7.9-1.9-10.24-4.24l-37.92-37.92c-2.34-2.34-4.24-6.93-4.24-10.24z" stroke="#5e5e5e" stroke-width="3" fill="#fff"/><use xlink:href="#c" transform="matrix(1,0,0,1,-1613.5,375) translate(50.370370370370374 64.65277777777777)"/><use xlink:href="#d" transform="matrix(1,0,0,1,-1613.5,375) translate(22.592592592592588 91.31944444444446)"/><path d="M-1538.5 272.5V350" stroke="#5e5e5e" stroke-width="2" fill="none"/><path d="M-1537.5 272.53h-2v-1.03h2z" fill="#5e5e5e"/><path d="M-1538.5 365.26l-4.64-14.26h9.28z" stroke="#5e5e5e" stroke-width="2" fill="#5e5e5e"/><path d="M-1418.5 422.4c0-3.3 1.9-7.9 4.24-10.24l37.92-37.92c2.34-2.34 6.93-4.24 10.24-4.24h55.2c3.3 0 7.9 1.9 10.24 4.24l37.92 37.92c2.34 2.34 4.24 6.93 4.24 10.24v55.2c0 3.3-1.9 7.9-4.24 10.24l-37.92 37.92c-2.34 2.34-6.93 4.24-10.24 4.24h-55.2c-3.3 0-7.9-1.9-10.24-4.24l-37.92-37.92c-2.34-2.34-4.24-6.93-4.24-10.24z" stroke="#5e5e5e" stroke-width="3" fill="#fff"/><use xlink:href="#a" transform="matrix(1,0,0,1,-1413.5,375) translate(50.370370370370374 64.65277777777777)"/><use xlink:href="#e" transform="matrix(1,0,0,1,-1413.5,375) translate(12.746913580246904 91.31944444444446)"/><path d="M-1220 422.4c0-3.3 1.9-7.9 4.24-10.24l37.92-37.92c2.34-2.34 6.93-4.24 10.24-4.24h55.2c3.3 0 7.9 1.9 10.24 4.24l37.92 37.92c2.34 2.34 4.24 6.93 4.24 10.24v55.2c0 3.3-1.9 7.9-4.24 10.24l-37.92 37.92c-2.34 2.34-6.93 4.24-10.24 4.24h-55.2c-3.3 0-7.9-1.9-10.24-4.24l-37.92-37.92c-2.34-2.34-4.24-6.93-4.24-10.24z" stroke="#5e5e5e" stroke-width="3" fill="#fff"/><use xlink:href="#a" transform="matrix(1,0,0,1,-1215,375) translate(50.370370370370374 66.11111111111111)"/><use xlink:href="#f" transform="matrix(1,0,0,1,-1215,375) translate(-2.6851851851851904 92.77777777777777)"/><path d="M-1020 396c0-3.3 2.7-6 6-6h148c3.3 0 6 2.7 6 6v108c0 3.3-2.7 6-6 6h-148c-3.3 0-6-2.7-6-6z" stroke="#5e5e5e" stroke-width="3" fill="#fff"/><use xlink:href="#g" transform="matrix(1,0,0,1,-1015,395) translate(42.99382716049383 59.02777777777778)"/><path d="M-1256 450h16" stroke="#5e5e5e" stroke-width="2" fill="none"/><path d="M-1255.97 451h-1.03v-2h1.03z" fill="#5e5e5e"/><path d="M-1224.74 450l-14.26 4.64v-9.28z" stroke="#5e5e5e" stroke-width="2" fill="#5e5e5e"/><path d="M-1057.5 450h17.5" stroke="#5e5e5e" stroke-width="2" fill="none"/><path d="M-1057.47 451h-1.03v-2h1.03z" fill="#5e5e5e"/><path d="M-1024.74 450l-14.26 4.64v-9.28z" stroke="#5e5e5e" stroke-width="2" fill="#5e5e5e"/><path d="M-1220 182.4c0-3.3 1.9-7.9 4.24-10.24l37.92-37.92c2.34-2.34 6.93-4.24 10.24-4.24h55.2c3.3 0 7.9 1.9 10.24 4.24l37.92 37.92c2.34 2.34 4.24 6.93 4.24 10.24v55.2c0 3.3-1.9 7.9-4.24 10.24l-37.92 37.92c-2.34 2.34-6.93 4.24-10.24 4.24h-55.2c-3.3 0-7.9-1.9-10.24-4.24l-37.92-37.92c-2.34-2.34-4.24-6.93-4.24-10.24z" stroke="#5e5e5e" stroke-width="3" fill="#fff"/><use xlink:href="#a" transform="matrix(1,0,0,1,-1215,135) translate(50.370370370370374 64.65277777777777)"/><use xlink:href="#h" transform="matrix(1,0,0,1,-1215,135) translate(12.067901234567891 91.31944444444446)"/><path d="M-1418.5 182.4c0-3.3 1.9-7.9 4.24-10.24l37.92-37.92c2.34-2.34 6.93-4.24 10.24-4.24h55.2c3.3 0 7.9 1.9 10.24 4.24l37.92 37.92c2.34 2.34 4.24 6.93 4.24 10.24v55.2c0 3.3-1.9 7.9-4.24 10.24l-37.92 37.92c-2.34 2.34-6.93 4.24-10.24 4.24h-55.2c-3.3 0-7.9-1.9-10.24-4.24l-37.92-37.92c-2.34-2.34-4.24-6.93-4.24-10.24z" stroke="#5e5e5e" stroke-width="3" fill="#fff"/><use xlink:href="#a" transform="matrix(1,0,0,1,-1413.5,135) translate(50.370370370370374 64.65277777777777)"/><use xlink:href="#i" transform="matrix(1,0,0,1,-1413.5,135) translate(56.48148148148148 91.31944444444446)"/><path d="M-1020 182.4c0-3.3 1.9-7.9 4.24-10.24l37.92-37.92c2.34-2.34 6.93-4.24 10.24-4.24h55.2c3.3 0 7.9 1.9 10.24 4.24l37.92 37.92c2.34 2.34 4.24 6.93 4.24 10.24v55.2c0 3.3-1.9 7.9-4.24 10.24l-37.92 37.92c-2.34 2.34-6.93 4.24-10.24 4.24h-55.2c-3.3 0-7.9-1.9-10.24-4.24l-37.92-37.92c-2.34-2.34-4.24-6.93-4.24-10.24z" fill="#fff"/><path d="M-1017.75 174.9l.05-.13 1.94-2.6 2.85-2.86m3.78-3.78l5.68-5.68m3.8-3.8l5.68-5.68m3.8-3.8l5.68-5.68m3.8-3.8l2.84-2.84 2.6-1.95.13-.05m4.16-1.73l.1-.05 3.24-.47h4.14m5.52 0h8.28m5.52 0h8.28m5.52 0h8.28m5.52 0h4.14l3.23.47.1.05m4.18 1.73l.13.05 2.6 1.94 2.86 2.85m3.78 3.78l5.68 5.68m3.8 3.8l5.68 5.68m3.8 3.8l5.68 5.68m3.8 3.8l2.84 2.84 1.95 2.6.05.13m1.73 4.16l.05.1.47 3.24v4.14m0 5.52v8.28m0 5.52v8.28m0 5.52v8.28m0 5.52v4.14l-.47 3.23-.05.1m-1.73 4.18l-.05.13-1.94 2.6-2.85 2.86m-3.78 3.78l-5.68 5.68m-3.8 3.8l-5.68 5.68m-3.8 3.8l-5.68 5.68m-3.8 3.8l-2.84 2.84-2.6 1.95-.13.05m-4.16 1.73l-.1.05-3.24.47h-4.14m-5.52 0h-8.28m-5.52 0h-8.28m-5.52 0h-8.28m-5.52 0h-4.14l-3.23-.47-.1-.05m-4.18-1.73l-.13-.05-2.6-1.94-2.86-2.85m-3.78-3.78l-5.68-5.68m-3.8-3.8l-5.68-5.68m-3.8-3.8l-5.68-5.68m-3.8-3.8l-2.84-2.84-1.95-2.6-.05-.13m-1.73-4.16l-.05-.1-.47-3.24v-4.14m0-5.52v-8.28m0-5.52v-8.28m0-5.52v-8.28m0-5.52v-4.14l.47-3.23.05-.1" stroke="#5e5e5e" stroke-width="3" fill="none"/><use xlink:href="#j" transform="matrix(1,0,0,1,-1015,135) translate(18.91975308641976 78.71527777777777)"/><path d="M-1621 450h-53c-3.3 0-6-2.7-6-6V86c0-3.3 2.7-6 6-6h329.5c3.3 0 6 2.7 6 6v24" stroke="#5e5e5e" stroke-width="2" fill="none"/><path d="M-1620 451h-1.03v-2h1.03z" fill="#5e5e5e"/><path d="M-1338.5 125.26l-4.64-14.26h9.28z" stroke="#5e5e5e" stroke-width="2" fill="#5e5e5e"/><path d="M-1621 450h-53c-3.3 0-6-2.7-6-6V86c0-3.3 2.7-6 6-6h528c3.3 0 6 2.7 6 6v24" stroke="#5e5e5e" stroke-width="2" fill="none"/><path d="M-1620 451h-1.03v-2h1.03z" fill="#5e5e5e"/><path d="M-1140 125.26l-4.64-14.26h9.28z" stroke="#5e5e5e" stroke-width="2" fill="#5e5e5e"/><path d="M-1621 450h-3.18m-4.24 0h-6.36m-4.24 0h-6.36m-4.24 0h-6.36m-4.24 0h-6.36m-4.24 0h-3.18l-2.7-.73m-2.57-2.57l-.73-2.7v-2.98m0-3.98v-5.97m0-3.98v-5.97m0-3.98v-5.97m0-3.97v-5.96m0-3.98v-5.97m0-3.98v-5.97m0-3.98v-5.96m0-3.97v-5.97m0-3.98v-5.96m0-3.98v-5.97m0-3.98v-5.97m0-3.98v-5.97m0-3.97v-5.96m0-3.98v-5.97m0-3.98v-5.97m0-3.98v-5.96m0-3.97v-5.97m0-3.98v-5.96m0-3.98v-5.97m0-3.98v-5.97m0-3.98v-5.97m0-3.97v-5.96m0-3.98v-5.97m0-3.98v-5.97m0-3.98v-5.96m0-3.97v-5.97m0-3.98v-5.96m0-3.98v-5.97m0-3.98v-5.97m0-3.98v-5.97m0-3.97v-5.96m0-3.98v-5.97m0-3.98v-5.97m0-3.98v-5.96m0-3.97v-5.97m0-3.98V86l.73-2.7m2.57-2.57l2.7-.73h3m3.98 0h5.98m4 0h5.98m4 0h5.97m4 0h5.98m4 0h5.97m4 0h5.98m4 0h5.97m4 0h5.97m4 0h5.98m3.98 0h6m3.98 0h6m3.98 0h5.98m4 0h5.98m3.98 0h6m3.98 0h5.98m4 0h5.97m4 0h5.98m4 0h5.97m4 0h5.97m4 0h5.97m4 0h5.98m4 0h5.97m3.98 0h5.98m4 0h5.97m4 0h5.98m4 0h5.98m4 0h5.97m4 0h5.97m4 0h5.98m4 0h5.97m4 0h5.97m4 0h5.98m3.98 0h6m3.98 0h5.98m4 0h5.97m4 0h5.98m4 0h5.98m4 0h5.97m4 0h5.97m4 0h5.98m3.98 0h6m3.98 0h5.98m4 0h5.97m4 0h6m3.98 0h5.98m4 0h5.97m4 0h5.97m4 0h5.98m4 0h5.97m4 0h5.97m4 0h5.97m3.98 0h6m3.98 0h5.98m4 0h5.97m4 0h5.98m4 0h5.98m4 0h5.97m4 0h5.97m4 0h5.98m3.98 0h6m3.98 0h5.98m4 0h5.97m3.98 0h6m3.97 0h6m3.98 0h5.98m4 0h5.98m4 0h5.98m4 0h5.97m4 0h5.97m4 0h5.97m4 0h5.98m4 0h5.97m4 0h2.98l2.7.73m2.57 2.57l.73 2.7v3.6m0 4.8v7.2m0 4.8v3.6" stroke="#5e5e5e" stroke-width="2" fill="none"/><path d="M-1620 451h-1.03v-2h1.03z" fill="#5e5e5e"/><path d="M-940 125.26l-4.64-14.26h9.28z" stroke="#5e5e5e" stroke-width="2" fill="#5e5e5e"/><path d="M-1538.5 532.5V574c0 3.3 2.7 6 6 6h188c3.3 0 6-2.7 6-6v-24" stroke="#5e5e5e" stroke-width="2" fill="none"/><path d="M-1537.5 532.53h-2v-1.03h2z" fill="#5e5e5e"/><path d="M-1338.5 534.74l4.64 14.26h-9.28z" stroke="#5e5e5e" stroke-width="2" fill="#5e5e5e"/><path d="M-1538.5 532.5V574c0 3.3 2.7 6 6 6h386.5c3.3 0 6-2.7 6-6v-24" stroke="#5e5e5e" stroke-width="2" fill="none"/><path d="M-1537.5 532.53h-2v-1.03h2z" fill="#5e5e5e"/><path d="M-1140 534.74l4.64 14.26h-9.28z" stroke="#5e5e5e" stroke-width="2" fill="#5e5e5e"/><path d="M-1538.5 532.5V574c0 3.3 2.7 6 6 6H-946c3.3 0 6-2.7 6-6v-44" stroke="#5e5e5e" stroke-width="2" fill="none"/><path d="M-1537.5 532.53h-2v-1.03h2z" fill="#5e5e5e"/><path d="M-940 514.74l4.64 14.26h-9.28z" stroke="#5e5e5e" stroke-width="2" fill="#5e5e5e"/><path d="M-840 78.5c0-3.3 2.7-6 6-6h58c3.3 0 6 2.7 6 6v48c0 3.3-2.7 6-6 6h-58c-3.3 0-6-2.7-6-6z" stroke="#5e5e5e" stroke-width="3" fill="#fff"/><use xlink:href="#k" transform="matrix(1,0,0,1,-835,77.50000000000003) translate(17.990740740740748 18.69444444444444)"/><use xlink:href="#l" transform="matrix(1,0,0,1,-835,77.50000000000003) translate(5.049382716049401 37.3611111111111)"/><path d="M-835 170.4c0-3.3 1.9-7.9 4.24-10.24l8.92-8.92c2.34-2.34 6.93-4.24 10.24-4.24h13.2c3.3 0 7.9 1.9 10.24 4.24l8.92 8.92c2.34 2.34 4.24 6.93 4.24 10.24v13.2c0 3.3-1.9 7.9-4.24 10.24l-8.92 8.92c-2.34 2.34-6.93 4.24-10.24 4.24h-13.2c-3.3 0-7.9-1.9-10.24-4.24l-8.92-8.92c-2.34-2.34-4.24-6.93-4.24-10.24z" stroke="#5e5e5e" stroke-width="3" fill="#fff"/><path d="M-758 92.25c0-3.3 2.7-6 6-6h98c3.3 0 6 2.7 6 6v28c0 3.3-2.7 6-6 6h-98c-3.3 0-6-2.7-6-6z" stroke="#000" stroke-opacity="0" stroke-width="3" fill="#fff" fill-opacity="0"/><use xlink:href="#m" transform="matrix(1,0,0,1,-753,91.25) translate(3.3888888888889 19.75)"/><use xlink:href="#n" transform="matrix(1,0,0,1,-753,91.25) translate(53.333333333333336 19.75)"/><path d="M-758 163c0-3.3 2.7-6 6-6h98c3.3 0 6 2.7 6 6v28c0 3.3-2.7 6-6 6h-98c-3.3 0-6-2.7-6-6z" stroke="#000" stroke-opacity="0" stroke-width="3" fill="#fff" fill-opacity="0"/><use xlink:href="#o" transform="matrix(1,0,0,1,-753,162) translate(2.7777777777777786 19.75)"/><path d="M-839 243h52.47M-838.97 243H-840" stroke="#5e5e5e" stroke-width="2" fill="none"/><path d="M-771.26 243l-14.27 4.64v-9.28z" stroke="#5e5e5e" stroke-width="2" fill="#5e5e5e"/><path d="M-756 221c0-3.3 2.7-6 6-6h98c3.3 0 6 2.7 6 6v46c0 3.3-2.7 6-6 6h-98c-3.3 0-6-2.7-6-6z" stroke="#000" stroke-opacity="0" stroke-width="3" fill="#fff" fill-opacity="0"/><use xlink:href="#p" transform="matrix(1,0,0,1,-751,220) translate(-4.3611111111111 16)"/><use xlink:href="#q" transform="matrix(1,0,0,1,-751,220) translate(13.94444444444445 40)"/><path d="M-1456 210h10c3.3 0 6 2.7 6 6v109.5c0 3.3 2.7 6 6 6h89.5c3.3 0 6-2.7 6-6V310" stroke="#5e5e5e" stroke-width="2" fill="none"/><path d="M-1455.97 211h-1.03v-2h1.03z" fill="#5e5e5e"/><path d="M-1338.5 294.74l4.64 14.26h-9.28z" stroke="#5e5e5e" stroke-width="2" fill="#5e5e5e"/><path d="M-1456 210h10c3.3 0 6 2.7 6 6v108c0 3.3 2.7 6 6 6h89.5c3.3 0 6 2.7 6 6v14" stroke="#5e5e5e" stroke-width="2" fill="none"/><path d="M-1455.97 211h-1.03v-2h1.03z" fill="#5e5e5e"/><path d="M-1338.5 365.26l-4.64-14.26h9.28z" stroke="#5e5e5e" stroke-width="2" fill="#5e5e5e"/><path d="M-1456 210h10c3.3 0 6 2.7 6 6v109.5c0 3.3 2.7 6 6 6h288c3.3 0 6-2.7 6-6V310" stroke="#5e5e5e" stroke-width="2" fill="none"/><path d="M-1455.97 211h-1.03v-2h1.03z" fill="#5e5e5e"/><path d="M-1140 294.74l4.64 14.26h-9.28z" stroke="#5e5e5e" stroke-width="2" fill="#5e5e5e"/><path d="M-1456 210h10c3.3 0 6 2.7 6 6v108c0 3.3 2.7 6 6 6h288c3.3 0 6 2.7 6 6v14" stroke="#5e5e5e" stroke-width="2" fill="none"/><path d="M-1455.97 211h-1.03v-2h1.03z" fill="#5e5e5e"/><path d="M-1140 365.26l-4.64-14.26h9.28z" stroke="#5e5e5e" stroke-width="2" fill="#5e5e5e"/><path d="M-1456 210h3m4 0h3l2.7.73m2.57 2.57l.73 2.7v3m0 3.97v5.97m0 3.98v5.98m0 3.98v5.97m0 3.98v5.97m0 4v5.96m0 3.98v5.97m0 4v5.97m0 3.98v5.97m0 3.98v5.98m0 3.98v5.97m0 3.98v3l.73 2.7m2.57 2.57l2.7.73h3m3.97 0h5.98m3.98 0h5.98m4 0h5.97m3.98 0h5.97m4 0h5.96m4 0h5.96m4 0h5.96m4 0h5.96m3.98 0h5.98m3.98 0h5.98m3.98 0h5.98m3.98 0h5.98m3.98 0h5.98m3.98 0h5.98m3.98 0h5.98m3.98 0h5.97m4 0h5.96m3.98 0h5.97m4 0h5.96m4 0h5.97m4 0h5.96m3.98 0h6m3.97 0h5.98m3.98 0h5.98m4 0h5.97m3.98 0h5.98m3.98 0h6m3.97 0h5.97m4 0h5.96m4 0h5.96m4 0h5.96m4 0h5.96m4 0h5.96m3.98 0h5.98m3.98 0h5.98m3.98 0h5.98m3.98 0h5.98m3.98 0h5.98m3.98 0h5.98m3.98 0h5.98m3.98 0h5.97m4 0h5.97m4 0h5.96m4 0h5.96m3.98 0h5.97m3.98 0h5.98m4 0h5.97m3.98 0h5.98m3.98 0h3l2.7-.73m2.57-2.57l.73-2.7v-2.32m0-3.1v-4.65m0-3.1V310" stroke="#5e5e5e" stroke-width="2" fill="none"/><path d="M-1455.97 211h-1.03v-2h1.03z" fill="#5e5e5e"/><path d="M-940 294.74l4.64 14.26h-9.28z" stroke="#5e5e5e" stroke-width="2" fill="#5e5e5e"/><path d="M-1456 210h10c3.3 0 6 2.7 6 6v108c0 3.3 2.7 6 6 6h488c3.3 0 6 2.7 6 6v34" stroke="#5e5e5e" stroke-width="2" fill="none"/><path d="M-1455.97 211h-1.03v-2h1.03z" fill="#5e5e5e"/><path d="M-940 385.26l-4.64-14.26h9.28z" stroke="#5e5e5e" stroke-width="2" fill="#5e5e5e"/><defs><path fill="#333" d="M240 0l2-218c-23 76-54 145-80 218h-23L58-218 59 0H30v-248h44l77 211c21-75 51-140 76-211h43V0h-30" id="r"/><path fill="#333" d="M212-179c-10-28-35-45-73-45-59 0-87 40-87 99 0 60 29 101 89 101 43 0 62-24 78-52l27 14C228-24 195 4 139 4 59 4 22-46 18-125c-6-104 99-153 187-111 19 9 31 26 39 46" id="s"/><path fill="#333" d="M160-131c35 5 61 23 61 61C221 17 115-2 30 0v-248c76 3 177-17 177 60 0 33-19 50-47 57zm-97-11c50-1 110 9 110-42 0-47-63-36-110-37v79zm0 115c55-2 124 14 124-45 0-56-70-42-124-44v89" id="t"/><g id="a"><use transform="matrix(0.06172839506172839,0,0,0.06172839506172839,0,0)" xlink:href="#r"/><use transform="matrix(0.06172839506172839,0,0,0.06172839506172839,18.456790123456788,0)" xlink:href="#s"/><use transform="matrix(0.06172839506172839,0,0,0.06172839506172839,34.44444444444444,0)" xlink:href="#t"/></g><path fill="#333" d="M135-143c-3-34-86-38-87 0 15 53 115 12 119 90S17 21 10-45l28-5c4 36 97 45 98 0-10-56-113-15-118-90-4-57 82-63 122-42 12 7 21 19 24 35" id="u"/><path fill="#333" d="M100-194c63 0 86 42 84 106H49c0 40 14 67 53 68 26 1 43-12 49-29l28 8c-11 28-37 45-77 45C44 4 14-33 15-96c1-61 26-98 85-98zm52 81c6-60-76-77-97-28-3 7-6 17-6 28h103" id="v"/><path fill="#333" d="M141-36C126-15 110 5 73 4 37 3 15-17 15-53c-1-64 63-63 125-63 3-35-9-54-41-54-24 1-41 7-42 31l-33-3c5-37 33-52 76-52 45 0 72 20 72 64v82c-1 20 7 32 28 27v20c-31 9-61-2-59-35zM48-53c0 20 12 33 32 33 41-3 63-29 60-74-43 2-92-5-92 41" id="w"/><path fill="#333" d="M114-163C36-179 61-72 57 0H25l-1-190h30c1 12-1 29 2 39 6-27 23-49 58-41v29" id="x"/><path fill="#333" d="M96-169c-40 0-48 33-48 73s9 75 48 75c24 0 41-14 43-38l32 2c-6 37-31 61-74 61-59 0-76-41-82-99-10-93 101-131 147-64 4 7 5 14 7 22l-32 3c-4-21-16-35-41-35" id="y"/><path fill="#333" d="M106-169C34-169 62-67 57 0H25v-261h32l-1 103c12-21 28-36 61-36 89 0 53 116 60 194h-32v-121c2-32-8-49-39-48" id="z"/><g id="b"><use transform="matrix(0.06172839506172839,0,0,0.06172839506172839,0,0)" xlink:href="#u"/><use transform="matrix(0.06172839506172839,0,0,0.06172839506172839,11.11111111111111,0)" xlink:href="#v"/><use transform="matrix(0.06172839506172839,0,0,0.06172839506172839,23.45679012345679,0)" xlink:href="#w"/><use transform="matrix(0.06172839506172839,0,0,0.06172839506172839,35.80246913580247,0)" xlink:href="#x"/><use transform="matrix(0.06172839506172839,0,0,0.06172839506172839,43.148148148148145,0)" xlink:href="#y"/><use transform="matrix(0.06172839506172839,0,0,0.06172839506172839,54.25925925925925,0)" xlink:href="#z"/></g><g id="c"><use transform="matrix(0.06172839506172839,0,0,0.06172839506172839,0,0)" xlink:href="#r"/><use transform="matrix(0.06172839506172839,0,0,0.06172839506172839,18.456790123456788,0)" xlink:href="#s"/><use transform="matrix(0.06172839506172839,0,0,0.06172839506172839,34.44444444444444,0)" xlink:href="#t"/></g><path fill="#333" d="M100-194c62-1 85 37 85 99 1 63-27 99-86 99S16-35 15-95c0-66 28-99 85-99zM99-20c44 1 53-31 53-75 0-43-8-75-51-75s-53 32-53 75 10 74 51 75" id="A"/><path fill="#333" d="M210-169c-67 3-38 105-44 169h-31v-121c0-29-5-50-35-48C34-165 62-65 56 0H25l-1-190h30c1 10-1 24 2 32 10-44 99-50 107 0 11-21 27-35 58-36 85-2 47 119 55 194h-31v-121c0-29-5-49-35-48" id="B"/><path fill="#333" d="M115-194c55 1 70 41 70 98S169 2 115 4C84 4 66-9 55-30l1 105H24l-1-265h31l2 30c10-21 28-34 59-34zm-8 174c40 0 45-34 45-75s-6-73-45-74c-42 0-51 32-51 76 0 43 10 73 51 73" id="C"/><path fill="#333" d="M84 4C-5 8 30-112 23-190h32v120c0 31 7 50 39 49 72-2 45-101 50-169h31l1 190h-30c-1-10 1-25-2-33-11 22-28 36-60 37" id="D"/><path fill="#333" d="M59-47c-2 24 18 29 38 22v24C64 9 27 4 27-40v-127H5v-23h24l9-43h21v43h35v23H59v120" id="E"/><g id="d"><use transform="matrix(0.06172839506172839,0,0,0.06172839506172839,0,0)" xlink:href="#x"/><use transform="matrix(0.06172839506172839,0,0,0.06172839506172839,7.345679012345679,0)" xlink:href="#v"/><use transform="matrix(0.06172839506172839,0,0,0.06172839506172839,19.691358024691358,0)" xlink:href="#y"/><use transform="matrix(0.06172839506172839,0,0,0.06172839506172839,30.80246913580247,0)" xlink:href="#A"/><use transform="matrix(0.06172839506172839,0,0,0.06172839506172839,43.148148148148145,0)" xlink:href="#B"/><use transform="matrix(0.06172839506172839,0,0,0.06172839506172839,61.60493827160494,0)" xlink:href="#C"/><use transform="matrix(0.06172839506172839,0,0,0.06172839506172839,73.95061728395062,0)" xlink:href="#D"/><use transform="matrix(0.06172839506172839,0,0,0.06172839506172839,86.2962962962963,0)" xlink:href="#E"/><use transform="matrix(0.06172839506172839,0,0,0.06172839506172839,92.46913580246914,0)" xlink:href="#v"/></g><path fill="#333" d="M24 0v-261h32V0H24" id="F"/><path fill="#333" d="M-5 72V49h209v23H-5" id="G"/><g id="e"><use transform="matrix(0.06172839506172839,0,0,0.06172839506172839,0,0)" xlink:href="#C"/><use transform="matrix(0.06172839506172839,0,0,0.06172839506172839,12.345679012345679,0)" xlink:href="#F"/><use transform="matrix(0.06172839506172839,0,0,0.06172839506172839,17.22222222222222,0)" xlink:href="#A"/><use transform="matrix(0.06172839506172839,0,0,0.06172839506172839,29.5679012345679,0)" xlink:href="#E"/><use transform="matrix(0.06172839506172839,0,0,0.06172839506172839,35.74074074074074,0)" xlink:href="#G"/><use transform="matrix(0.06172839506172839,0,0,0.06172839506172839,48.08641975308642,0)" xlink:href="#y"/><use transform="matrix(0.06172839506172839,0,0,0.06172839506172839,59.19753086419753,0)" xlink:href="#F"/><use transform="matrix(0.06172839506172839,0,0,0.06172839506172839,64.07407407407408,0)" xlink:href="#D"/><use transform="matrix(0.06172839506172839,0,0,0.06172839506172839,76.41975308641976,0)" xlink:href="#u"/><use transform="matrix(0.06172839506172839,0,0,0.06172839506172839,87.53086419753087,0)" xlink:href="#E"/><use transform="matrix(0.06172839506172839,0,0,0.06172839506172839,93.70370370370371,0)" xlink:href="#v"/><use transform="matrix(0.06172839506172839,0,0,0.06172839506172839,106.0493827160494,0)" xlink:href="#x"/><use transform="matrix(0.06172839506172839,0,0,0.06172839506172839,113.39506172839508,0)" xlink:href="#u"/></g><path fill="#333" d="M141 0L90-78 38 0H4l68-98-65-92h35l48 74 47-74h35l-64 92 68 98h-35" id="H"/><g id="f"><use transform="matrix(0.06172839506172839,0,0,0.06172839506172839,0,0)" xlink:href="#v"/><use transform="matrix(0.06172839506172839,0,0,0.06172839506172839,12.345679012345679,0)" xlink:href="#H"/><use transform="matrix(0.06172839506172839,0,0,0.06172839506172839,23.45679012345679,0)" xlink:href="#E"/><use transform="matrix(0.06172839506172839,0,0,0.06172839506172839,29.62962962962963,0)" xlink:href="#x"/><use transform="matrix(0.06172839506172839,0,0,0.06172839506172839,36.97530864197531,0)" xlink:href="#w"/><use transform="matrix(0.06172839506172839,0,0,0.06172839506172839,49.32098765432099,0)" xlink:href="#y"/><use transform="matrix(0.06172839506172839,0,0,0.06172839506172839,60.4320987654321,0)" xlink:href="#E"/><use transform="matrix(0.06172839506172839,0,0,0.06172839506172839,66.60493827160494,0)" xlink:href="#G"/><use transform="matrix(0.06172839506172839,0,0,0.06172839506172839,78.95061728395062,0)" xlink:href="#y"/><use transform="matrix(0.06172839506172839,0,0,0.06172839506172839,90.06172839506173,0)" xlink:href="#F"/><use transform="matrix(0.06172839506172839,0,0,0.06172839506172839,94.93827160493828,0)" xlink:href="#D"/><use transform="matrix(0.06172839506172839,0,0,0.06172839506172839,107.28395061728396,0)" xlink:href="#u"/><use transform="matrix(0.06172839506172839,0,0,0.06172839506172839,118.39506172839508,0)" xlink:href="#E"/><use transform="matrix(0.06172839506172839,0,0,0.06172839506172839,124.56790123456791,0)" xlink:href="#v"/><use transform="matrix(0.06172839506172839,0,0,0.06172839506172839,136.9135802469136,0)" xlink:href="#x"/><use transform="matrix(0.06172839506172839,0,0,0.06172839506172839,144.25925925925927,0)" xlink:href="#u"/></g><path fill="#333" d="M24-231v-30h32v30H24zM24 0v-190h32V0H24" id="I"/><path fill="#333" d="M117-194c89-4 53 116 60 194h-32v-121c0-31-8-49-39-48C34-167 62-67 57 0H25l-1-190h30c1 10-1 24 2 32 11-22 29-35 61-36" id="J"/><path fill="#333" d="M143 0L79-87 56-68V0H24v-261h32v163l83-92h37l-77 82L181 0h-38" id="K"/><g id="g"><use transform="matrix(0.06172839506172839,0,0,0.06172839506172839,0,0)" xlink:href="#y"/><use transform="matrix(0.06172839506172839,0,0,0.06172839506172839,11.11111111111111,0)" xlink:href="#F"/><use transform="matrix(0.06172839506172839,0,0,0.06172839506172839,15.987654320987653,0)" xlink:href="#I"/><use transform="matrix(0.06172839506172839,0,0,0.06172839506172839,20.864197530864196,0)" xlink:href="#J"/><use transform="matrix(0.06172839506172839,0,0,0.06172839506172839,33.20987654320987,0)" xlink:href="#K"/><use transform="matrix(0.06172839506172839,0,0,0.06172839506172839,44.32098765432099,0)" xlink:href="#v"/><use transform="matrix(0.06172839506172839,0,0,0.06172839506172839,56.666666666666664,0)" xlink:href="#x"/></g><path fill="#333" d="M145-31C134-9 116 4 85 4 32 4 16-35 15-94c0-59 17-99 70-100 32-1 48 14 60 33 0-11-1-24 2-32h30l-1 268h-32zM93-21c41 0 51-33 51-76s-8-73-50-73c-40 0-46 35-46 75s5 74 45 74" id="L"/><g id="h"><use transform="matrix(0.06172839506172839,0,0,0.06172839506172839,0,0)" xlink:href="#v"/><use transform="matrix(0.06172839506172839,0,0,0.06172839506172839,12.345679012345679,0)" xlink:href="#H"/><use transform="matrix(0.06172839506172839,0,0,0.06172839506172839,23.45679012345679,0)" xlink:href="#E"/><use transform="matrix(0.06172839506172839,0,0,0.06172839506172839,29.62962962962963,0)" xlink:href="#x"/><use transform="matrix(0.06172839506172839,0,0,0.06172839506172839,36.97530864197531,0)" xlink:href="#w"/><use transform="matrix(0.06172839506172839,0,0,0.06172839506172839,49.32098765432099,0)" xlink:href="#y"/><use transform="matrix(0.06172839506172839,0,0,0.06172839506172839,60.4320987654321,0)" xlink:href="#E"/><use transform="matrix(0.06172839506172839,0,0,0.06172839506172839,66.60493827160494,0)" xlink:href="#G"/><use transform="matrix(0.06172839506172839,0,0,0.06172839506172839,78.95061728395062,0)" xlink:href="#u"/><use transform="matrix(0.06172839506172839,0,0,0.06172839506172839,90.06172839506173,0)" xlink:href="#v"/><use transform="matrix(0.06172839506172839,0,0,0.06172839506172839,102.40740740740742,0)" xlink:href="#L"/><use transform="matrix(0.06172839506172839,0,0,0.06172839506172839,114.7530864197531,0)" xlink:href="#u"/></g><path fill="#333" d="M177-190C167-65 218 103 67 71c-23-6-38-20-44-43l32-5c15 47 100 32 89-28v-30C133-14 115 1 83 1 29 1 15-40 15-95c0-56 16-97 71-98 29-1 48 16 59 35 1-10 0-23 2-32h30zM94-22c36 0 50-32 50-73 0-42-14-75-50-75-39 0-46 34-46 75s6 73 46 73" id="M"/><g id="i"><use transform="matrix(0.06172839506172839,0,0,0.06172839506172839,0,0)" xlink:href="#M"/><use transform="matrix(0.06172839506172839,0,0,0.06172839506172839,12.345679012345679,0)" xlink:href="#J"/><use transform="matrix(0.06172839506172839,0,0,0.06172839506172839,24.691358024691358,0)" xlink:href="#v"/></g><path fill="#333" d="M140-251c81 0 123 46 123 126C263-46 219 4 140 4 59 4 17-45 17-125s42-126 123-126zm0 227c63 0 89-41 89-101s-29-99-89-99c-61 0-89 39-89 99S79-25 140-24" id="N"/><path fill="#333" d="M233-177c-1 41-23 64-60 70L243 0h-38l-65-103H63V0H30v-248c88 3 205-21 203 71zM63-129c60-2 137 13 137-47 0-61-80-42-137-45v92" id="O"/><path fill="#333" d="M205 0l-28-72H64L36 0H1l101-248h38L239 0h-34zm-38-99l-47-123c-12 45-31 82-46 123h93" id="P"/><path fill="#333" d="M185-189c-5-48-123-54-124 2 14 75 158 14 163 119 3 78-121 87-175 55-17-10-28-26-33-46l33-7c5 56 141 63 141-1 0-78-155-14-162-118-5-82 145-84 179-34 5 7 8 16 11 25" id="Q"/><path fill="#333" d="M190 0L58-211 59 0H30v-248h39L202-35l-2-213h31V0h-41" id="R"/><g id="j"><use transform="matrix(0.06172839506172839,0,0,0.06172839506172839,0,0)" xlink:href="#s"/><use transform="matrix(0.06172839506172839,0,0,0.06172839506172839,15.987654320987653,0)" xlink:href="#N"/><use transform="matrix(0.06172839506172839,0,0,0.06172839506172839,33.2716049382716,0)" xlink:href="#O"/><use transform="matrix(0.06172839506172839,0,0,0.06172839506172839,49.25925925925925,0)" xlink:href="#P"/><use transform="matrix(0.06172839506172839,0,0,0.06172839506172839,64.07407407407406,0)" xlink:href="#Q"/><use transform="matrix(0.06172839506172839,0,0,0.06172839506172839,78.88888888888887,0)" xlink:href="#N"/><use transform="matrix(0.06172839506172839,0,0,0.06172839506172839,96.17283950617282,0)" xlink:href="#R"/></g><g id="k"><use transform="matrix(0.04320987654320985,0,0,0.04320987654320985,0,0)" xlink:href="#E"/><use transform="matrix(0.04320987654320985,0,0,0.04320987654320985,4.3209876543209855,0)" xlink:href="#A"/><use transform="matrix(0.04320987654320985,0,0,0.04320987654320985,12.962962962962957,0)" xlink:href="#A"/><use transform="matrix(0.04320987654320985,0,0,0.04320987654320985,21.60493827160493,0)" xlink:href="#F"/></g><path fill="#333" d="M85-194c31 0 48 13 60 33l-1-100h32l1 261h-30c-2-10 0-23-3-31C134-8 116 4 85 4 32 4 16-35 15-94c0-66 23-100 70-100zm9 24c-40 0-46 34-46 75 0 40 6 74 45 74 42 0 51-32 51-76 0-42-9-74-50-73" id="S"/><g id="l"><use transform="matrix(0.04320987654320985,0,0,0.04320987654320985,0,0)" xlink:href="#B"/><use transform="matrix(0.04320987654320985,0,0,0.04320987654320985,12.919753086419746,0)" xlink:href="#A"/><use transform="matrix(0.04320987654320985,0,0,0.04320987654320985,21.561728395061717,0)" xlink:href="#S"/><use transform="matrix(0.04320987654320985,0,0,0.04320987654320985,30.203703703703688,0)" xlink:href="#D"/><use transform="matrix(0.04320987654320985,0,0,0.04320987654320985,38.845679012345656,0)" xlink:href="#F"/><use transform="matrix(0.04320987654320985,0,0,0.04320987654320985,42.25925925925923,0)" xlink:href="#v"/></g><path fill="#333" d="M179-190L93 31C79 59 56 82 12 73V49c39 6 53-20 64-50L1-190h34L92-34l54-156h33" id="T"/><g id="m"><use transform="matrix(0.055555555555555546,0,0,0.055555555555555546,0,0)" xlink:href="#v"/><use transform="matrix(0.055555555555555546,0,0,0.055555555555555546,11.111111111111109,0)" xlink:href="#J"/><use transform="matrix(0.055555555555555546,0,0,0.055555555555555546,22.222222222222218,0)" xlink:href="#E"/><use transform="matrix(0.055555555555555546,0,0,0.055555555555555546,27.77777777777777,0)" xlink:href="#x"/><use transform="matrix(0.055555555555555546,0,0,0.055555555555555546,34.38888888888888,0)" xlink:href="#T"/></g><g id="n"><use transform="matrix(0.055555555555555546,0,0,0.055555555555555546,0,0)" xlink:href="#C"/><use transform="matrix(0.055555555555555546,0,0,0.055555555555555546,11.111111111111109,0)" xlink:href="#A"/><use transform="matrix(0.055555555555555546,0,0,0.055555555555555546,22.222222222222218,0)" xlink:href="#I"/><use transform="matrix(0.055555555555555546,0,0,0.055555555555555546,26.611111111111107,0)" xlink:href="#J"/><use transform="matrix(0.055555555555555546,0,0,0.055555555555555546,37.722222222222214,0)" xlink:href="#E"/></g><g id="o"><use transform="matrix(0.055555555555555546,0,0,0.055555555555555546,0,0)" xlink:href="#S"/><use transform="matrix(0.055555555555555546,0,0,0.055555555555555546,11.111111111111109,0)" xlink:href="#v"/><use transform="matrix(0.055555555555555546,0,0,0.055555555555555546,22.222222222222218,0)" xlink:href="#C"/><use transform="matrix(0.055555555555555546,0,0,0.055555555555555546,33.33333333333333,0)" xlink:href="#v"/><use transform="matrix(0.055555555555555546,0,0,0.055555555555555546,44.444444444444436,0)" xlink:href="#J"/><use transform="matrix(0.055555555555555546,0,0,0.055555555555555546,55.55555555555554,0)" xlink:href="#S"/><use transform="matrix(0.055555555555555546,0,0,0.055555555555555546,66.66666666666666,0)" xlink:href="#v"/><use transform="matrix(0.055555555555555546,0,0,0.055555555555555546,77.77777777777777,0)" xlink:href="#J"/><use transform="matrix(0.055555555555555546,0,0,0.055555555555555546,88.88888888888889,0)" xlink:href="#E"/></g><path fill="#333" d="M206 0h-36l-40-164L89 0H53L-1-190h32L70-26l43-164h34l41 164 42-164h31" id="U"/><g id="p"><use transform="matrix(0.055555555555555546,0,0,0.055555555555555546,0,0)" xlink:href="#S"/><use transform="matrix(0.055555555555555546,0,0,0.055555555555555546,11.111111111111109,0)" xlink:href="#A"/><use transform="matrix(0.055555555555555546,0,0,0.055555555555555546,22.222222222222218,0)" xlink:href="#U"/><use transform="matrix(0.055555555555555546,0,0,0.055555555555555546,36.6111111111111,0)" xlink:href="#J"/><use transform="matrix(0.055555555555555546,0,0,0.055555555555555546,47.72222222222221,0)" xlink:href="#u"/><use transform="matrix(0.055555555555555546,0,0,0.055555555555555546,57.722222222222214,0)" xlink:href="#E"/><use transform="matrix(0.055555555555555546,0,0,0.055555555555555546,63.277777777777764,0)" xlink:href="#x"/><use transform="matrix(0.055555555555555546,0,0,0.055555555555555546,69.88888888888887,0)" xlink:href="#v"/><use transform="matrix(0.055555555555555546,0,0,0.055555555555555546,80.99999999999999,0)" xlink:href="#w"/><use transform="matrix(0.055555555555555546,0,0,0.055555555555555546,92.1111111111111,0)" xlink:href="#B"/></g><g id="q"><use transform="matrix(0.055555555555555546,0,0,0.055555555555555546,0,0)" xlink:href="#w"/><use transform="matrix(0.055555555555555546,0,0,0.055555555555555546,11.111111111111109,0)" xlink:href="#J"/><use transform="matrix(0.055555555555555546,0,0,0.055555555555555546,22.222222222222218,0)" xlink:href="#w"/><use transform="matrix(0.055555555555555546,0,0,0.055555555555555546,33.33333333333333,0)" xlink:href="#F"/><use transform="matrix(0.055555555555555546,0,0,0.055555555555555546,37.722222222222214,0)" xlink:href="#T"/><use transform="matrix(0.055555555555555546,0,0,0.055555555555555546,47.722222222222214,0)" xlink:href="#u"/><use transform="matrix(0.055555555555555546,0,0,0.055555555555555546,57.722222222222214,0)" xlink:href="#I"/><use transform="matrix(0.055555555555555546,0,0,0.055555555555555546,62.1111111111111,0)" xlink:href="#u"/></g></defs></g></svg>